<svg width="291" height="185" viewBox="0 0 291 185" fill="none" xmlns="http://www.w3.org/2000/svg">
<g filter="url(#filter0_d_2244_562)">
<rect x="50" y="26" width="191" height="85" rx="8" fill="white"/>
<rect x="69" y="43" width="51.2798" height="51.2798" rx="16" fill="#38A05B"/>
<path d="M133.75 74L137.222 63.92H138.587L142.059 74H140.988L137.691 64.494H138.097L134.821 74H133.75ZM135.297 71.557V70.591H140.505V71.557H135.297ZM144.806 74L142.062 66.44H143.105L145.338 72.656L147.557 66.44H148.614L145.87 74H144.806ZM151.611 74.21C151.041 74.21 150.563 74.1073 150.176 73.902C149.793 73.6967 149.506 73.4237 149.315 73.083C149.123 72.7423 149.028 72.3713 149.028 71.97C149.028 71.5593 149.109 71.2093 149.273 70.92C149.441 70.626 149.667 70.3857 149.952 70.199C150.241 70.0123 150.575 69.87 150.953 69.772C151.335 69.6787 151.758 69.597 152.22 69.527C152.686 69.4523 153.141 69.3893 153.585 69.338C154.033 69.282 154.425 69.2283 154.761 69.177L154.397 69.401C154.411 68.6543 154.266 68.1013 153.963 67.742C153.659 67.3827 153.132 67.203 152.381 67.203C151.863 67.203 151.424 67.3197 151.065 67.553C150.71 67.7863 150.46 68.155 150.316 68.659L149.315 68.365C149.487 67.6883 149.835 67.1633 150.358 66.79C150.88 66.4167 151.559 66.23 152.395 66.23C153.085 66.23 153.671 66.3607 154.152 66.622C154.637 66.8787 154.98 67.252 155.181 67.742C155.274 67.9613 155.335 68.2063 155.363 68.477C155.391 68.7477 155.405 69.023 155.405 69.303V74H154.488V72.103L154.754 72.215C154.497 72.8637 154.098 73.3583 153.557 73.699C153.015 74.0397 152.367 74.21 151.611 74.21ZM151.73 73.321C152.21 73.321 152.63 73.2347 152.99 73.062C153.349 72.8893 153.638 72.6537 153.858 72.355C154.077 72.0517 154.219 71.711 154.285 71.333C154.341 71.0903 154.371 70.8243 154.376 70.535C154.38 70.241 154.383 70.0217 154.383 69.877L154.775 70.08C154.425 70.1267 154.044 70.1733 153.634 70.22C153.228 70.2667 152.826 70.3203 152.43 70.381C152.038 70.4417 151.683 70.514 151.366 70.598C151.151 70.6587 150.943 70.745 150.743 70.857C150.542 70.9643 150.376 71.109 150.246 71.291C150.12 71.473 150.057 71.6993 150.057 71.97C150.057 72.1893 150.11 72.4017 150.218 72.607C150.33 72.8123 150.507 72.9827 150.75 73.118C150.997 73.2533 151.324 73.321 151.73 73.321ZM157.367 65.005V63.85H158.396V65.005H157.367ZM157.367 74V66.44H158.396V74H157.367ZM160.635 74V63.71H161.664V74H160.635ZM165.925 74.21C165.356 74.21 164.878 74.1073 164.49 73.902C164.108 73.6967 163.821 73.4237 163.629 73.083C163.438 72.7423 163.342 72.3713 163.342 71.97C163.342 71.5593 163.424 71.2093 163.587 70.92C163.755 70.626 163.982 70.3857 164.266 70.199C164.556 70.0123 164.889 69.87 165.267 69.772C165.65 69.6787 166.072 69.597 166.534 69.527C167.001 69.4523 167.456 69.3893 167.899 69.338C168.347 69.282 168.739 69.2283 169.075 69.177L168.711 69.401C168.725 68.6543 168.581 68.1013 168.277 67.742C167.974 67.3827 167.447 67.203 166.695 67.203C166.177 67.203 165.739 67.3197 165.379 67.553C165.025 67.7863 164.775 68.155 164.63 68.659L163.629 68.365C163.802 67.6883 164.15 67.1633 164.672 66.79C165.195 66.4167 165.874 66.23 166.709 66.23C167.4 66.23 167.986 66.3607 168.466 66.622C168.952 66.8787 169.295 67.252 169.495 67.742C169.589 67.9613 169.649 68.2063 169.677 68.477C169.705 68.7477 169.719 69.023 169.719 69.303V74H168.802V72.103L169.068 72.215C168.812 72.8637 168.413 73.3583 167.871 73.699C167.33 74.0397 166.681 74.21 165.925 74.21ZM166.044 73.321C166.525 73.321 166.945 73.2347 167.304 73.062C167.664 72.8893 167.953 72.6537 168.172 72.355C168.392 72.0517 168.534 71.711 168.599 71.333C168.655 71.0903 168.686 70.8243 168.69 70.535C168.695 70.241 168.697 70.0217 168.697 69.877L169.089 70.08C168.739 70.1267 168.359 70.1733 167.948 70.22C167.542 70.2667 167.141 70.3203 166.744 70.381C166.352 70.4417 165.998 70.514 165.68 70.598C165.466 70.6587 165.258 70.745 165.057 70.857C164.857 70.9643 164.691 71.109 164.56 71.291C164.434 71.473 164.371 71.6993 164.371 71.97C164.371 72.1893 164.425 72.4017 164.532 72.607C164.644 72.8123 164.822 72.9827 165.064 73.118C165.312 73.2533 165.638 73.321 166.044 73.321ZM174.937 74.21C174.241 74.21 173.653 74.035 173.173 73.685C172.692 73.3303 172.328 72.852 172.081 72.25C171.833 71.6433 171.71 70.9643 171.71 70.213C171.71 69.4477 171.833 68.7663 172.081 68.169C172.333 67.567 172.701 67.0933 173.187 66.748C173.672 66.4027 174.269 66.23 174.979 66.23C175.669 66.23 176.262 66.405 176.757 66.755C177.251 67.105 177.629 67.581 177.891 68.183C178.157 68.785 178.29 69.4617 178.29 70.213C178.29 70.969 178.157 71.648 177.891 72.25C177.625 72.852 177.242 73.3303 176.743 73.685C176.243 74.035 175.641 74.21 174.937 74.21ZM171.535 74V63.92H172.571V68.309H172.459V74H171.535ZM174.832 73.251C175.359 73.251 175.798 73.118 176.148 72.852C176.498 72.586 176.759 72.2243 176.932 71.767C177.109 71.305 177.198 70.787 177.198 70.213C177.198 69.6437 177.111 69.1303 176.939 68.673C176.766 68.2157 176.502 67.854 176.148 67.588C175.798 67.322 175.352 67.189 174.811 67.189C174.283 67.189 173.845 67.3173 173.495 67.574C173.149 67.8307 172.89 68.1877 172.718 68.645C172.545 69.0977 172.459 69.6203 172.459 70.213C172.459 70.7963 172.545 71.319 172.718 71.781C172.89 72.2383 173.152 72.5977 173.502 72.859C173.852 73.1203 174.295 73.251 174.832 73.251ZM179.967 74V63.71H180.996V74H179.967ZM186.293 74.21C185.556 74.21 184.917 74.0467 184.375 73.72C183.839 73.3933 183.421 72.9337 183.122 72.341C182.824 71.7483 182.674 71.053 182.674 70.255C182.674 69.429 182.821 68.715 183.115 68.113C183.409 67.511 183.822 67.0467 184.354 66.72C184.891 66.3933 185.523 66.23 186.251 66.23C186.998 66.23 187.635 66.4027 188.162 66.748C188.69 67.0887 189.089 67.5787 189.359 68.218C189.63 68.8573 189.754 69.6203 189.73 70.507H188.68V70.143C188.662 69.163 188.449 68.4233 188.043 67.924C187.642 67.4247 187.054 67.175 186.279 67.175C185.467 67.175 184.844 67.4387 184.41 67.966C183.981 68.4933 183.766 69.2447 183.766 70.22C183.766 71.172 183.981 71.9117 184.41 72.439C184.844 72.9617 185.458 73.223 186.251 73.223C186.793 73.223 187.264 73.0993 187.665 72.852C188.071 72.6 188.391 72.2383 188.624 71.767L189.583 72.138C189.285 72.796 188.844 73.307 188.26 73.671C187.682 74.0303 187.026 74.21 186.293 74.21ZM183.402 70.507V69.646H189.177V70.507H183.402ZM193.806 73.993L193.813 73.055L198.37 68.939C198.762 68.5843 199.021 68.2483 199.147 67.931C199.278 67.609 199.343 67.273 199.343 66.923C199.343 66.5077 199.245 66.132 199.049 65.796C198.853 65.46 198.59 65.194 198.258 64.998C197.927 64.7973 197.556 64.697 197.145 64.697C196.716 64.697 196.333 64.7997 195.997 65.005C195.661 65.2103 195.395 65.481 195.199 65.817C195.008 66.153 194.915 66.5193 194.919 66.916H193.869C193.869 66.3047 194.014 65.7563 194.303 65.271C194.593 64.7857 194.985 64.4053 195.479 64.13C195.974 63.85 196.534 63.71 197.159 63.71C197.771 63.71 198.319 63.8547 198.804 64.144C199.294 64.4287 199.679 64.816 199.959 65.306C200.244 65.7913 200.386 66.3327 200.386 66.93C200.386 67.35 200.335 67.721 200.232 68.043C200.134 68.3603 199.978 68.6567 199.763 68.932C199.553 69.2027 199.285 69.4827 198.958 69.772L194.912 73.426L194.751 73.006H200.386V73.993H193.806ZM206.235 74V72.047H201.517V71.067L204.891 63.92H206.046L202.672 71.067H206.235V68.127H207.271V71.067H208.37V72.047H207.271V74H206.235ZM212.603 63.92H213.66L210.972 74H209.915L212.603 63.92ZM216.022 74L219.732 64.921H215.063V63.92H220.831V64.921L217.128 74H216.022Z" fill="#264065"/>
</g>
<defs>
<filter id="filter0_d_2244_562" x="0" y="0" width="291" height="185" filterUnits="userSpaceOnUse" color-interpolation-filters="sRGB">
<feFlood flood-opacity="0" result="BackgroundImageFix"/>
<feColorMatrix in="SourceAlpha" type="matrix" values="0 0 0 0 0 0 0 0 0 0 0 0 0 0 0 0 0 0 127 0" result="hardAlpha"/>
<feOffset dy="24"/>
<feGaussianBlur stdDeviation="25"/>
<feColorMatrix type="matrix" values="0 0 0 0 0 0 0 0 0 0 0 0 0 0 0 0 0 0 0.05 0"/>
<feBlend mode="normal" in2="BackgroundImageFix" result="effect1_dropShadow_2244_562"/>
<feBlend mode="normal" in="SourceGraphic" in2="effect1_dropShadow_2244_562" result="shape"/>
</filter>
</defs>
</svg>
