<svg width="24" height="23" viewBox="0 0 24 23" fill="none" xmlns="http://www.w3.org/2000/svg">
<path fill-rule="evenodd" clip-rule="evenodd" d="M7.69176 0H16.3482C20.3317 0 23.562 3.13587 23.562 7.00284V15.4062C23.562 19.2732 20.3317 22.4091 16.3482 22.4091H7.69176C3.70834 22.4091 0.478027 19.2732 0.478027 15.4062V7.00284C0.478027 3.13587 3.70834 0 7.69176 0ZM16.3482 20.3082C19.1327 20.3082 21.3979 18.1093 21.3979 15.4062V7.00284C21.3979 4.29974 19.1327 2.10085 16.3482 2.10085H7.69176C4.90726 2.10085 2.64215 4.29974 2.64215 7.00284V15.4062C2.64215 18.1093 4.90726 20.3082 7.69176 20.3082H16.3482Z" fill="white"/>
<path fill-rule="evenodd" clip-rule="evenodd" d="M6.24902 11.2043C6.24902 8.11047 8.83298 5.60205 12.02 5.60205C15.207 5.60205 17.791 8.11047 17.791 11.2043C17.791 14.2982 15.207 16.8066 12.02 16.8066C8.83298 16.8066 6.24902 14.2982 6.24902 11.2043ZM8.41314 11.2043C8.41314 13.1343 10.0319 14.7057 12.02 14.7057C14.0081 14.7057 15.6269 13.1343 15.6269 11.2043C15.6269 9.27294 14.0081 7.7029 12.02 7.7029C10.0319 7.7029 8.41314 9.27294 8.41314 11.2043Z" fill="white"/>
<ellipse cx="18.2238" cy="5.18205" rx="0.768984" ry="0.746503" fill="white"/>
</svg>
