<svg width="24" height="19" viewBox="0 0 24 19" fill="none" xmlns="http://www.w3.org/2000/svg">
<path d="M23.5073 2.19258C22.6489 2.55813 21.7342 2.80043 20.7805 2.91808C21.7616 2.34945 22.5104 1.45588 22.8624 0.378848C21.9477 0.908263 20.9378 1.28221 19.8615 1.4909C18.9929 0.593135 17.7551 0.0371094 16.4047 0.0371094C13.7846 0.0371094 11.6753 2.10155 11.6753 4.63237C11.6753 4.99652 11.7071 5.34666 11.785 5.68C7.8506 5.49372 4.36925 3.66318 2.03056 0.874649C1.62226 1.56233 1.38277 2.34945 1.38277 3.19679C1.38277 4.78784 2.22677 6.19821 3.48485 7.01474C2.72452 7.00073 1.97862 6.78645 1.3467 6.44891C1.3467 6.46292 1.3467 6.48112 1.3467 6.49933C1.3467 8.73184 2.9871 10.5862 5.13824 11.0134C4.75302 11.1156 4.33319 11.1646 3.89748 11.1646C3.5945 11.1646 3.28864 11.1478 3.00153 11.0862C3.6147 12.9055 5.35465 14.2431 7.42355 14.2865C5.81344 15.5092 3.76907 16.2459 1.5559 16.2459C1.1678 16.2459 0.795569 16.2291 0.42334 16.1829C2.51965 17.4952 5.00406 18.2445 7.68324 18.2445C16.3917 18.2445 21.1527 11.2417 21.1527 5.17159C21.1527 4.96851 21.1455 4.77243 21.1354 4.57775C22.0746 3.93069 22.8638 3.12256 23.5073 2.19258Z" fill="white"/>
</svg>
