<svg width="199" height="41" viewBox="0 0 199 41" fill="none" xmlns="http://www.w3.org/2000/svg">
<path d="M178.079 6.77018C173.73 4.71027 169.114 3.22379 164.412 2.16462C154.999 0.0572318 145.248 -0.428526 135.617 0.349416C130.802 0.751171 126.006 1.49259 121.29 2.60654C116.574 3.72415 112.196 5.28734 107.714 7.21942C93.9923 13.1325 88.2635 22.7563 88.2635 22.7563L86.0835 19.4985H83.03L88.3956 27.5226C88.3956 27.5226 96.91 10.2289 121.727 4.33043C126.347 3.23109 131.019 2.27784 135.757 1.76286C145.229 0.762126 154.889 1.00318 164.265 2.85855C168.948 3.79355 173.562 5.14855 177.933 7.09158C182.296 9.03096 186.429 11.573 189.882 14.9039C186.513 11.489 182.421 8.83008 178.083 6.77018H178.079Z" fill="#00AF50"/>
<path d="M1.57077 14.104C1.14138 14.104 0.770704 14.2501 0.462424 14.5386C0.154144 14.8308 0 15.1742 0 15.5723C0 15.9996 0.150474 16.3575 0.451414 16.6387C0.752354 16.9236 1.12303 17.0624 1.57077 17.0624C2.01851 17.0624 2.36715 16.92 2.66809 16.6387C2.96903 16.3575 3.1195 15.9996 3.1195 15.5723C3.1195 15.1742 2.96903 14.8308 2.66809 14.5386C2.36715 14.2465 2.00383 14.104 1.57077 14.104Z" fill="white"/>
<path d="M2.81478 19.4985H0.278809V30.9777H2.81478V19.4985Z" fill="white"/>
<path d="M15.5279 20.3823C15.1425 20.039 14.6948 19.7651 14.1773 19.5679C13.6635 19.3707 13.113 19.2684 12.5295 19.2684C11.6377 19.2684 10.8376 19.4364 10.1293 19.7724C9.42099 20.1084 8.8081 20.554 8.28329 21.1055V15.2034H5.74731V30.9777H8.28329V23.6293C8.63561 23.1106 9.09803 22.665 9.66688 22.2962C10.2357 21.9273 10.9367 21.7447 11.7661 21.7447C12.5185 21.7447 13.1167 21.9638 13.5534 22.3984C13.9901 22.8331 14.2103 23.443 14.2103 24.2246V30.9741H16.7463V23.1216C16.7463 22.5847 16.6399 22.0807 16.4233 21.6059C16.2068 21.1311 15.9095 20.722 15.5242 20.3787L15.5279 20.3823Z" fill="white"/>
<path d="M28.9783 20.8973C28.4535 20.3933 27.848 19.9952 27.1543 19.703C26.4607 19.4108 25.723 19.2684 24.9413 19.2684C24.1596 19.2684 23.3632 19.4254 22.6586 19.7395C21.9503 20.0536 21.3337 20.4773 20.8016 21.0142C20.2694 21.5511 19.851 22.1829 19.5427 22.9098C19.2345 23.6366 19.0803 24.4145 19.0803 25.2399C19.0803 26.0654 19.2345 26.8433 19.5427 27.5701C19.851 28.2969 20.2694 28.9288 20.8016 29.4657C21.3337 30.0025 21.9503 30.4262 22.6586 30.7403C23.3669 31.0544 24.1266 31.2115 24.9413 31.2115C25.7561 31.2115 26.4644 31.0617 27.1543 30.7622C27.848 30.4627 28.4535 30.0537 28.9783 29.535V30.9814H31.5143V19.5021H28.9783V20.901V20.8973ZM28.6076 26.6607C28.4241 27.1063 28.1746 27.4861 27.859 27.8075C27.5433 28.1289 27.169 28.3809 26.7396 28.5635C26.3102 28.7462 25.8478 28.8375 25.356 28.8375C24.8642 28.8375 24.4018 28.7462 23.9724 28.5635C23.543 28.3809 23.1687 28.1289 22.8531 27.8075C22.5375 27.4861 22.2879 27.1026 22.1044 26.6607C21.9209 26.2187 21.8291 25.7439 21.8291 25.2363C21.8291 24.7286 21.9209 24.2575 22.1044 23.8119C22.2879 23.3699 22.5375 22.9864 22.8531 22.665C23.1687 22.3436 23.5394 22.0916 23.9724 21.909C24.4018 21.7264 24.8642 21.6351 25.356 21.6351C25.8478 21.6351 26.3102 21.7264 26.7396 21.909C27.169 22.0916 27.5433 22.3436 27.859 22.665C28.1746 22.9864 28.4241 23.3699 28.6076 23.8119C28.7911 24.2575 28.8829 24.7286 28.8829 25.2363C28.8829 25.7439 28.7911 26.2151 28.6076 26.6607Z" fill="white"/>
<path d="M39.5186 27.3035L36.2449 19.4985H33.3823L38.48 30.9777H40.4434L45.4493 19.4985H42.6564L39.5186 27.3035Z" fill="white"/>
<path d="M57.2154 22.6541C56.8924 21.9748 56.474 21.3831 55.9566 20.8864C55.4428 20.3897 54.8519 19.9952 54.1913 19.703C53.5307 19.4108 52.8297 19.2684 52.0921 19.2684C51.2626 19.2684 50.4883 19.4181 49.7726 19.7176C49.057 20.0171 48.4331 20.4335 47.9046 20.9704C47.3724 21.5073 46.9541 22.1391 46.6458 22.8659C46.3375 23.5927 46.1833 24.3707 46.1833 25.1961C46.1833 26.0215 46.3375 26.8031 46.6458 27.5372C46.9541 28.2713 47.3761 28.9105 47.9156 29.4547C48.4551 29.9989 49.09 30.4262 49.8203 30.7403C50.5507 31.0544 51.3324 31.2115 52.1618 31.2115C52.6536 31.2115 53.1453 31.1567 53.6371 31.0508C54.1289 30.9448 54.5913 30.7914 55.0207 30.5906C55.4501 30.3933 55.8465 30.1596 56.2098 29.8893C56.5695 29.6227 56.8667 29.3269 57.0979 29.0055L55.3694 27.7199C55.0464 28.0559 54.6244 28.3298 54.0995 28.5343C53.5747 28.7425 53.0169 28.8448 52.415 28.8448C52.0297 28.8448 51.6406 28.7863 51.2516 28.6731C50.8589 28.5599 50.5066 28.3919 50.191 28.1691C49.8754 27.9463 49.6148 27.6724 49.4056 27.3437C49.1964 27.0149 49.0716 26.6351 49.0239 26.2078H57.6998C57.6998 25.9923 57.7145 25.7622 57.7475 25.5175C57.7769 25.2728 57.7842 25.0646 57.7695 24.8966C57.7218 24.0858 57.5383 23.3407 57.2154 22.6577V22.6541ZM48.9322 24.3634C48.9615 23.9653 49.0643 23.5964 49.2331 23.2604C49.4019 22.9244 49.6258 22.6322 49.9011 22.3875C50.1763 22.1428 50.5029 21.9565 50.8809 21.825C51.259 21.6935 51.6627 21.6314 52.0921 21.6314C52.9068 21.6314 53.5967 21.8871 54.1583 22.4021C54.7198 22.9134 55.0391 23.5708 55.1161 24.367H48.9322V24.3634Z" fill="white"/>
<path d="M63.88 28.3006C63.6635 28.0011 63.5571 27.6395 63.5571 27.2085V21.31H66.2802V19.4948H63.5571V16.5803L61.0211 17.2012V19.4985H59.1531V21.3137H61.0211V27.8331C61.0211 28.2604 61.0982 28.6658 61.2523 29.0493C61.4065 29.4328 61.612 29.7651 61.8762 30.0464C62.1368 30.3313 62.4414 30.5504 62.7864 30.7111C63.1314 30.8718 63.5057 30.9521 63.9057 30.9521H66.6289V28.7498H64.6911C64.3681 28.7498 64.1002 28.6001 63.8837 28.3006H63.88Z" fill="white"/>
<path d="M78.2994 20.8973C77.7745 20.3933 77.169 19.9952 76.4754 19.703C75.7817 19.4108 75.0441 19.2684 74.2624 19.2684C73.4806 19.2684 72.6843 19.4254 71.9796 19.7395C71.2713 20.0536 70.6547 20.4773 70.1226 21.0142C69.5904 21.5511 69.1721 22.1829 68.8638 22.9098C68.5555 23.6366 68.4014 24.4145 68.4014 25.2399C68.4014 26.0654 68.5555 26.8433 68.8638 27.5701C69.1721 28.2969 69.5904 28.9288 70.1226 29.4657C70.6547 30.0025 71.2713 30.4262 71.9796 30.7403C72.6879 31.0544 73.4476 31.2115 74.2624 31.2115C75.0771 31.2115 75.7854 31.0617 76.4754 30.7622C77.169 30.4627 77.7745 30.0537 78.2994 29.535V30.9814H80.8353V19.5021H78.2994V20.901V20.8973ZM77.9324 26.6607C77.7489 27.1063 77.4993 27.4861 77.1837 27.8075C76.8681 28.1289 76.4937 28.3809 76.0643 28.5635C75.6349 28.7462 75.1725 28.8375 74.6807 28.8375C74.189 28.8375 73.7265 28.7462 73.2971 28.5635C72.8678 28.3809 72.4934 28.1289 72.1778 27.8075C71.8622 27.4861 71.6126 27.1026 71.4291 26.6607C71.2456 26.2187 71.1539 25.7439 71.1539 25.2363C71.1539 24.7286 71.2456 24.2575 71.4291 23.8119C71.6126 23.3699 71.8622 22.9864 72.1778 22.665C72.4934 22.3436 72.8641 22.0916 73.2971 21.909C73.7265 21.7264 74.189 21.6351 74.6807 21.6351C75.1725 21.6351 75.6349 21.7264 76.0643 21.909C76.4937 22.0916 76.8681 22.3436 77.1837 22.665C77.4993 22.9864 77.7489 23.3699 77.9324 23.8119C78.1159 24.2575 78.2076 24.7286 78.2076 25.2363C78.2076 25.7439 78.1159 26.2151 77.9324 26.6607Z" fill="white"/>
<path d="M104.415 20.8754C103.89 20.3714 103.285 19.9769 102.591 19.6921C101.898 19.4108 101.16 19.2684 100.378 19.2684C99.5964 19.2684 98.7964 19.4254 98.0844 19.7395C97.3687 20.0536 96.7448 20.4773 96.2163 21.0142C95.6842 21.5511 95.2658 22.1829 94.9575 22.9098C94.6493 23.6366 94.4951 24.4145 94.4951 25.2399C94.4951 26.0654 94.6493 26.8433 94.9575 27.5701C95.2658 28.2969 95.6842 28.9288 96.2163 29.4657C96.7485 30.0025 97.3687 30.4262 98.0844 30.7403C98.8 31.0544 99.5634 31.2115 100.378 31.2115C101.193 31.2115 101.901 31.0654 102.591 30.7768C103.281 30.4883 103.89 30.0792 104.415 29.5606V30.985H106.951V14.9148H104.415V20.8827V20.8754ZM103.942 26.6607C103.766 27.1063 103.52 27.4861 103.204 27.8075C102.888 28.1289 102.518 28.3809 102.096 28.5635C101.674 28.7462 101.215 28.8375 100.723 28.8375C100.231 28.8375 99.7946 28.7462 99.3726 28.5635C98.9505 28.3809 98.5798 28.1289 98.2642 27.8075C97.9486 27.4861 97.7027 27.1026 97.5265 26.6607C97.3504 26.2187 97.2623 25.7439 97.2623 25.2363C97.2623 24.7286 97.3504 24.2575 97.5265 23.8119C97.7027 23.3699 97.9486 22.9864 98.2642 22.665C98.5798 22.3436 98.9468 22.0916 99.3726 21.909C99.7946 21.7264 100.246 21.6351 100.723 21.6351C101.2 21.6351 101.674 21.7264 102.096 21.909C102.518 22.0916 102.888 22.3436 103.204 22.665C103.52 22.9864 103.766 23.3699 103.942 23.8119C104.118 24.2575 104.206 24.7286 104.206 25.2363C104.206 25.7439 104.118 26.2151 103.942 26.6607Z" fill="white"/>
<path d="M120.515 22.6541C120.192 21.9748 119.774 21.3831 119.257 20.8864C118.743 20.3897 118.152 19.9952 117.491 19.703C116.831 19.4108 116.13 19.2684 115.392 19.2684C114.563 19.2684 113.788 19.4181 113.073 19.7176C112.357 20.0171 111.733 20.4335 111.205 20.9704C110.672 21.5073 110.254 22.1391 109.946 22.8659C109.638 23.5927 109.483 24.3707 109.483 25.1961C109.483 26.0215 109.638 26.8031 109.946 27.5372C110.254 28.2713 110.676 28.9105 111.216 29.4547C111.755 29.9989 112.39 30.4262 113.12 30.7403C113.851 31.0544 114.632 31.2115 115.462 31.2115C115.954 31.2115 116.445 31.1567 116.937 31.0508C117.429 30.9448 117.891 30.7914 118.321 30.5906C118.75 30.3933 119.147 30.1596 119.51 29.8893C119.87 29.6227 120.167 29.3269 120.398 29.0055L118.669 27.7199C118.346 28.0559 117.924 28.3298 117.4 28.5343C116.875 28.7425 116.317 28.8448 115.715 28.8448C115.33 28.8448 114.941 28.7863 114.552 28.6731C114.159 28.5599 113.807 28.3919 113.491 28.1691C113.175 27.9463 112.915 27.6724 112.706 27.3437C112.496 27.0149 112.372 26.6351 112.324 26.2078H121C121 25.9923 121.015 25.7622 121.048 25.5175C121.077 25.2728 121.084 25.0646 121.07 24.8966C121.022 24.0858 120.838 23.3407 120.515 22.6577V22.6541ZM112.236 24.3634C112.265 23.9653 112.368 23.5964 112.537 23.2604C112.706 22.9244 112.93 22.6322 113.205 22.3875C113.48 22.1428 113.807 21.9565 114.185 21.825C114.563 21.6935 114.966 21.6314 115.396 21.6314C116.211 21.6314 116.9 21.8871 117.462 22.4021C118.023 22.9134 118.343 23.5708 118.42 24.367H112.236V24.3634Z" fill="white"/>
<path d="M134.3 21.0142C133.768 20.4773 133.148 20.0536 132.432 19.7395C131.716 19.4254 130.953 19.2684 130.138 19.2684C129.323 19.2684 128.619 19.4108 127.936 19.6921C127.25 19.9769 126.641 20.3677 126.101 20.8754V15.2034H123.565V30.9777H126.101V29.5533C126.641 30.0719 127.25 30.481 127.936 30.7695C128.619 31.0617 129.356 31.2041 130.138 31.2041C130.92 31.2041 131.72 31.0471 132.432 30.733C133.148 30.4189 133.771 29.9952 134.3 29.4583C134.832 28.9215 135.25 28.2896 135.559 27.5628C135.867 26.836 136.021 26.058 136.021 25.2326C136.021 24.4072 135.867 23.6293 135.559 22.9025C135.25 22.1756 134.832 21.5438 134.3 21.0069V21.0142ZM133.008 26.6607C132.832 27.1063 132.586 27.4861 132.27 27.8075C131.955 28.1289 131.584 28.3809 131.162 28.5635C130.74 28.7462 130.281 28.8375 129.79 28.8375C129.298 28.8375 128.861 28.7462 128.439 28.5635C128.017 28.3809 127.646 28.1289 127.331 27.8075C127.015 27.4861 126.769 27.1026 126.593 26.6607C126.417 26.2187 126.329 25.7439 126.329 25.2363C126.329 24.7286 126.417 24.2575 126.593 23.8119C126.769 23.3699 127.015 22.9864 127.331 22.665C127.646 22.3436 128.013 22.0916 128.439 21.909C128.861 21.7264 129.312 21.6351 129.79 21.6351C130.267 21.6351 130.74 21.7264 131.162 21.909C131.584 22.0916 131.955 22.3436 132.27 22.665C132.586 22.9864 132.832 23.3699 133.008 23.8119C133.184 24.2575 133.272 24.7286 133.272 25.2363C133.272 25.7439 133.184 26.2151 133.008 26.6607Z" fill="white"/>
<path d="M142.18 28.3006C141.963 28.0011 141.857 27.6395 141.857 27.2085V21.31H144.58V19.4948H141.857V16.5803L139.321 17.2012V19.4985H137.453V21.3137H139.321V27.8331C139.321 28.2604 139.398 28.6658 139.552 29.0493C139.706 29.4328 139.912 29.7651 140.176 30.0464C140.436 30.3313 140.741 30.5504 141.086 30.7111C141.431 30.8718 141.805 30.9521 142.205 30.9521H144.928V28.7498H142.991C142.668 28.7498 142.4 28.6001 142.183 28.3006H142.18Z" fill="white"/>
<path d="M148.708 28.4759C148.308 28.4759 147.967 28.611 147.681 28.8776C147.395 29.1443 147.255 29.462 147.255 29.8309C147.255 30.229 147.398 30.5577 147.681 30.817C147.963 31.0763 148.308 31.2078 148.708 31.2078C149.108 31.2078 149.446 31.0763 149.725 30.817C150 30.5577 150.14 30.229 150.14 29.8309C150.14 29.462 150 29.1479 149.725 28.8776C149.45 28.611 149.108 28.4759 148.708 28.4759Z" fill="white"/>
<path d="M160.485 28.5672C160.001 28.7498 159.498 28.8411 158.973 28.8411C158.449 28.8411 157.964 28.7498 157.52 28.5672C157.072 28.3846 156.691 28.1326 156.368 27.8112C156.045 27.4898 155.795 27.1099 155.619 26.6753C155.443 26.2407 155.355 25.7622 155.355 25.2399C155.355 24.6884 155.45 24.1881 155.645 23.7352C155.836 23.2823 156.1 22.9024 156.43 22.5883C156.76 22.2742 157.157 22.0332 157.619 21.8652C158.082 21.6972 158.588 21.6132 159.142 21.6132C159.634 21.6132 160.115 21.7045 160.585 21.8871C161.054 22.0697 161.443 22.3217 161.748 22.6431L163.132 20.7622C162.548 20.302 161.876 19.9404 161.124 19.6702C160.372 19.4035 159.586 19.2684 158.772 19.2684C157.909 19.2684 157.102 19.4218 156.349 19.7286C155.597 20.0354 154.944 20.4554 154.39 20.9923C153.835 21.5292 153.399 22.161 153.076 22.8878C152.753 23.6146 152.591 24.3999 152.591 25.2399C152.591 26.08 152.756 26.8433 153.087 27.5701C153.417 28.2969 153.868 28.9288 154.437 29.4657C155.006 30.0025 155.678 30.4262 156.456 30.7403C157.234 31.0544 158.06 31.2115 158.937 31.2115C159.814 31.2115 160.574 31.069 161.311 30.7878C162.049 30.5029 162.695 30.1121 163.249 29.6044L161.748 27.8148C161.396 28.1362 160.974 28.3882 160.489 28.5708L160.485 28.5672Z" fill="white"/>
<path d="M175.088 21.0142C174.527 20.4773 173.87 20.0536 173.117 19.7395C172.365 19.4254 171.558 19.2684 170.695 19.2684C169.833 19.2684 169.022 19.4254 168.262 19.7395C167.502 20.0536 166.838 20.4773 166.277 21.0142C165.715 21.5511 165.275 22.1829 164.952 22.9098C164.629 23.6366 164.467 24.4145 164.467 25.2399C164.467 26.0654 164.629 26.8433 164.952 27.5701C165.275 28.2969 165.715 28.9288 166.277 29.4657C166.838 30.0025 167.499 30.4262 168.262 30.7403C169.022 31.0544 169.833 31.2115 170.695 31.2115C171.558 31.2115 172.365 31.0544 173.117 30.7403C173.87 30.4262 174.527 30.0025 175.088 29.4657C175.65 28.9288 176.09 28.2969 176.413 27.5701C176.736 26.8433 176.898 26.0654 176.898 25.2399C176.898 24.4145 176.736 23.6366 176.413 22.9098C176.09 22.1829 175.646 21.5511 175.088 21.0142ZM173.888 26.6607C173.712 27.1063 173.466 27.4861 173.151 27.8075C172.835 28.1289 172.472 28.3809 172.053 28.5635C171.635 28.7462 171.183 28.8375 170.692 28.8375C170.2 28.8375 169.741 28.7462 169.319 28.5635C168.897 28.3809 168.526 28.1289 168.211 27.8075C167.895 27.4861 167.649 27.1026 167.473 26.6607C167.297 26.2187 167.209 25.7439 167.209 25.2363C167.209 24.7286 167.297 24.2575 167.473 23.8119C167.649 23.3699 167.895 22.9864 168.211 22.665C168.526 22.3436 168.893 22.0916 169.319 21.909C169.741 21.7264 170.2 21.6351 170.692 21.6351C171.183 21.6351 171.638 21.7264 172.053 21.909C172.468 22.0916 172.835 22.3436 173.151 22.665C173.466 22.9864 173.712 23.3699 173.888 23.8119C174.064 24.2575 174.152 24.7286 174.152 25.2363C174.152 25.7439 174.064 26.2151 173.888 26.6607Z" fill="white"/>
<path d="M198.169 21.8177C197.938 21.3137 197.622 20.8718 197.222 20.4992C196.822 20.123 196.356 19.8272 195.828 19.6044C195.295 19.3816 194.723 19.272 194.11 19.272C193.648 19.272 193.204 19.3305 192.77 19.4437C192.341 19.5569 191.934 19.714 191.548 19.9148C191.163 20.1157 190.811 20.3349 190.488 20.5796C190.165 20.8243 189.878 21.0836 189.633 21.3612C189.324 20.7184 188.851 20.2107 188.212 19.8345C187.574 19.4583 186.81 19.272 185.919 19.272C185.089 19.272 184.326 19.4401 183.636 19.7761C182.942 20.1121 182.337 20.5504 181.812 21.0836V19.4985H179.276V30.9777H181.812V23.6293C182.164 23.1106 182.619 22.665 183.173 22.2962C183.728 21.9273 184.373 21.7447 185.111 21.7447C185.926 21.7447 186.553 21.9602 186.99 22.3875C187.427 22.8148 187.647 23.4284 187.647 24.2246V30.9741H190.161V23.5818C190.513 23.0778 190.965 22.6431 191.512 22.2852C192.058 21.9273 192.701 21.7447 193.438 21.7447C194.253 21.7447 194.881 21.9638 195.317 22.3984C195.754 22.8331 195.974 23.443 195.974 24.2246V30.9741H198.51V23.4211C198.51 22.855 198.397 22.3181 198.165 21.8141L198.169 21.8177Z" fill="white"/>
<path d="M89.1077 28.5927L90.7004 30.9777H93.7539L90.6344 26.3064L89.1077 28.5927Z" fill="white"/>
<path d="M83.0264 30.9777H86.0835L87.6799 28.5927L86.1495 26.3064L83.0264 30.9777Z" fill="white"/>
<path d="M2.90297 40.3167V38.3262H0.704645V40.3167H0V35.8134H0.704645V37.7637H2.90297V35.8134H3.60761V40.3167H2.90297Z" fill="white"/>
<path d="M5.29956 40.3167V35.8061H7.78048V36.3685H6.00053V37.7491H7.5823V38.3116H6.00053V39.7542H7.78048V40.3167H5.29956Z" fill="white"/>
<path d="M9.40625 40.3167V35.8134H10.1072V39.7615H11.656V40.3167H9.40625Z" fill="white"/>
<path d="M12.9844 40.3167V35.8134H14.5405C14.8854 35.8134 15.1827 35.8718 15.4212 35.9923C15.6598 36.1092 15.8396 36.2699 15.9571 36.4708C16.0745 36.6717 16.1332 36.8981 16.1332 37.1465C16.1332 37.3729 16.0782 37.5884 15.9717 37.7893C15.8653 37.9901 15.6928 38.1545 15.4543 38.2823C15.2194 38.4102 14.9111 38.4722 14.5368 38.4722H13.6853V40.3203H12.9844V40.3167ZM13.689 37.9061H14.5405C14.8304 37.9061 15.0506 37.8404 15.1937 37.7053C15.3368 37.5738 15.4102 37.3839 15.4102 37.1392C15.4102 36.6278 15.1166 36.3685 14.5368 36.3685H13.6853V37.9025L13.689 37.9061Z" fill="white"/>
<path d="M18.262 35.8134H17.561V40.3167H18.262V35.8134Z" fill="white"/>
<path d="M22.9376 40.3167L20.6585 36.8616V40.3167H19.9539V35.8061H20.6805L22.9633 39.2538V35.8061H23.6642V40.3167H22.9376Z" fill="white"/>
<path d="M27.4222 40.3568C27.0002 40.3568 26.6075 40.2582 26.2551 40.061C25.9065 39.8638 25.6239 39.5899 25.4184 39.2429C25.2129 38.8959 25.1101 38.4942 25.1101 38.0559C25.1101 37.6176 25.2129 37.2159 25.4184 36.8689C25.6239 36.5219 25.9065 36.2443 26.2588 36.0508C26.6111 35.8536 27.0038 35.7549 27.4222 35.7549C27.903 35.7549 28.336 35.8755 28.7104 36.1092C29.0737 36.3393 29.3453 36.6644 29.5141 37.0771H28.6627C28.5416 36.8543 28.3764 36.6826 28.1672 36.5657C27.9544 36.4489 27.7048 36.3904 27.4259 36.3904C27.1213 36.3904 26.8424 36.4598 26.6038 36.595C26.3653 36.7301 26.1744 36.9273 26.0386 37.1793C25.9028 37.4313 25.8368 37.7235 25.8368 38.0559C25.8368 38.3883 25.9065 38.6804 26.0386 38.9361C26.1744 39.1918 26.3653 39.389 26.6038 39.5241C26.8424 39.6593 27.1213 39.7286 27.4259 39.7286C27.8369 39.7286 28.1782 39.6118 28.4351 39.3817C28.692 39.1516 28.8535 38.8375 28.9086 38.443V38.4175H27.191V37.8696H29.6646V38.4284C29.6169 38.7717 29.4921 39.0968 29.2902 39.3926C29.0884 39.6848 28.8242 39.9222 28.5012 40.0975C28.1782 40.2728 27.8186 40.3605 27.4222 40.3605V40.3568Z" fill="white"/>
<path d="M35.5367 40.3568C35.1147 40.3568 34.722 40.2582 34.3696 40.061C34.021 39.8638 33.7384 39.5899 33.5329 39.2429C33.3274 38.8959 33.2246 38.4942 33.2246 38.0559C33.2246 37.6176 33.3274 37.2159 33.5329 36.8689C33.7384 36.5219 34.021 36.2443 34.3733 36.0508C34.7256 35.8536 35.1183 35.7549 35.5367 35.7549C36.0175 35.7549 36.4505 35.8755 36.8249 36.1092C37.1882 36.3393 37.4598 36.6644 37.6286 37.0771H36.7772C36.6561 36.8543 36.4909 36.6826 36.2817 36.5657C36.0689 36.4489 35.8193 36.3904 35.5404 36.3904C35.2358 36.3904 34.9569 36.4598 34.7183 36.595C34.4798 36.7301 34.2889 36.9273 34.1531 37.1793C34.0173 37.4313 33.9513 37.7235 33.9513 38.0559C33.9513 38.3883 34.021 38.6804 34.1531 38.9361C34.2889 39.1918 34.4798 39.389 34.7183 39.5241C34.9569 39.6593 35.2358 39.7286 35.5404 39.7286C35.9514 39.7286 36.2927 39.6118 36.5496 39.3817C36.8065 39.1516 36.968 38.8375 37.0231 38.443V38.4175H35.3055V37.8696H37.7791V38.4284C37.7314 38.7754 37.6066 39.1005 37.4047 39.3926C37.2029 39.6848 36.9386 39.9222 36.6157 40.0975C36.2927 40.2728 35.9294 40.3605 35.5367 40.3605V40.3568Z" fill="white"/>
<path d="M41.2801 40.3642C40.8617 40.3642 40.469 40.2655 40.1167 40.0683C39.7644 39.8711 39.4818 39.5972 39.2763 39.2466C39.0708 38.8959 38.968 38.4942 38.968 38.0559C38.968 37.6176 39.0708 37.2159 39.2763 36.8689C39.4818 36.5219 39.7644 36.2443 40.1167 36.0508C40.469 35.8536 40.8617 35.7549 41.2801 35.7549C41.6985 35.7549 42.0985 35.8536 42.4508 36.0508C42.8032 36.248 43.0858 36.5219 43.2876 36.8689C43.4895 37.2159 43.5922 37.6176 43.5922 38.0559C43.5922 38.4942 43.4895 38.8959 43.2876 39.2466C43.0858 39.5972 42.8032 39.8747 42.4508 40.0683C42.0985 40.2655 41.7058 40.3642 41.2801 40.3642ZM41.2801 36.3612C40.9755 36.3612 40.7003 36.4306 40.458 36.5657C40.2195 36.7045 40.0286 36.9018 39.8929 37.1574C39.7571 37.4131 39.691 37.7126 39.691 38.0522C39.691 38.3919 39.7607 38.6914 39.8929 38.9507C40.0286 39.21 40.2195 39.4109 40.458 39.5497C40.6966 39.6885 40.9755 39.7579 41.2801 39.7579C41.5847 39.7579 41.8637 39.6885 42.1022 39.5497C42.3408 39.4109 42.5316 39.21 42.6674 38.9507C42.8032 38.6914 42.8692 38.3919 42.8692 38.0522C42.8692 37.7126 42.7995 37.4131 42.6674 37.1574C42.5316 36.9018 42.3408 36.7009 42.1022 36.5657C41.8637 36.4306 41.5847 36.3612 41.2801 36.3612Z" fill="white"/>
<path d="M47.097 40.3642C46.6786 40.3642 46.2859 40.2655 45.9336 40.0683C45.5813 39.8711 45.2987 39.5972 45.0932 39.2466C44.8877 38.8959 44.7849 38.4942 44.7849 38.0559C44.7849 37.6176 44.8877 37.2159 45.0932 36.8689C45.2987 36.5219 45.5813 36.2443 45.9336 36.0508C46.2859 35.8536 46.6786 35.7549 47.097 35.7549C47.5154 35.7549 47.9154 35.8536 48.2677 36.0508C48.6201 36.248 48.9026 36.5219 49.1045 36.8689C49.3063 37.2159 49.4091 37.6176 49.4091 38.0559C49.4091 38.4942 49.3063 38.8959 49.1045 39.2466C48.9026 39.5972 48.6201 39.8747 48.2677 40.0683C47.9154 40.2655 47.5227 40.3642 47.097 40.3642ZM47.097 36.3612C46.7924 36.3612 46.5172 36.4306 46.2749 36.5657C46.0364 36.7045 45.8455 36.9018 45.7097 37.1574C45.574 37.4131 45.5079 37.7126 45.5079 38.0522C45.5079 38.3919 45.5776 38.6951 45.7097 38.9507C45.8455 39.21 46.0364 39.4109 46.2749 39.5497C46.5135 39.6885 46.7924 39.7579 47.097 39.7579C47.4016 39.7579 47.6805 39.6885 47.9191 39.5497C48.1576 39.4109 48.3485 39.21 48.4843 38.9507C48.6201 38.6914 48.6861 38.3919 48.6861 38.0522C48.6861 37.7126 48.6164 37.4131 48.4843 37.1574C48.3485 36.9018 48.1576 36.7009 47.9191 36.5657C47.6805 36.4306 47.4016 36.3612 47.097 36.3612Z" fill="white"/>
<path d="M50.8516 40.3167V35.8134H52.3232C52.804 35.8134 53.2297 35.9047 53.5931 36.0909C53.9527 36.2736 54.2353 36.5402 54.4335 36.8798C54.6317 37.2232 54.7308 37.6249 54.7308 38.0815C54.7308 38.538 54.6317 38.9397 54.4335 39.2758C54.239 39.6118 53.9564 39.8711 53.5931 40.0501C53.2334 40.229 52.804 40.3203 52.3232 40.3203H50.8516V40.3167ZM51.5562 39.7542H52.3232C52.8627 39.7542 53.2811 39.6081 53.571 39.3159C53.861 39.0238 54.0041 38.6074 54.0041 38.0815C54.0041 37.5555 53.8573 37.1282 53.571 36.8287C53.2811 36.5292 52.8627 36.3758 52.3232 36.3758H51.5562V39.7579V39.7542Z" fill="white"/>
<path d="M58.5476 40.3167V35.8134H60.1037C60.4487 35.8134 60.7459 35.8718 60.9845 35.9923C61.223 36.1092 61.4029 36.2699 61.5203 36.4708C61.6377 36.6717 61.6965 36.8981 61.6965 37.1465C61.6965 37.3729 61.6414 37.5884 61.535 37.7893C61.4286 37.9901 61.2561 38.1545 61.0175 38.2823C60.7826 38.4102 60.4744 38.4722 60.1 38.4722H59.2486V40.3203H58.5476V40.3167ZM59.2486 37.9061H60.1C60.3899 37.9061 60.6101 37.8404 60.7533 37.7053C60.8964 37.5738 60.9698 37.3839 60.9698 37.1392C60.9698 36.6278 60.6762 36.3685 60.0963 36.3685H59.2449V37.9025L59.2486 37.9061Z" fill="white"/>
<path d="M63.1204 40.3167V35.8061H65.6013V36.3685H63.8213V37.7491H65.4031V38.3116H63.8213V39.7542H65.6013V40.3167H63.1204Z" fill="white"/>
<path d="M69.2896 40.3642C68.8713 40.3642 68.4786 40.2655 68.1263 40.0683C67.7739 39.8711 67.4913 39.5972 67.2858 39.2466C67.0803 38.8959 66.9775 38.4942 66.9775 38.0559C66.9775 37.6176 67.0803 37.2159 67.2858 36.8689C67.4913 36.5219 67.7739 36.2443 68.1263 36.0508C68.4786 35.8536 68.8713 35.7549 69.2896 35.7549C69.708 35.7549 70.108 35.8536 70.4604 36.0508C70.8127 36.248 71.0953 36.5219 71.2971 36.8689C71.499 37.2195 71.6017 37.6176 71.6017 38.0559C71.6017 38.4942 71.499 38.8959 71.2971 39.2466C71.0953 39.5972 70.8127 39.8747 70.4604 40.0683C70.108 40.2655 69.7154 40.3642 69.2896 40.3642ZM69.2896 36.3612C68.985 36.3612 68.7098 36.4306 68.4676 36.5657C68.229 36.7045 68.0382 36.9018 67.9024 37.1574C67.7666 37.4131 67.7005 37.7126 67.7005 38.0522C67.7005 38.3919 67.7703 38.6951 67.9024 38.9507C68.0382 39.21 68.229 39.4109 68.4676 39.5497C68.7061 39.6885 68.985 39.7579 69.2896 39.7579C69.5942 39.7579 69.8732 39.6885 70.1117 39.5497C70.3503 39.4109 70.5411 39.21 70.6769 38.9507C70.8127 38.6914 70.8788 38.3919 70.8788 38.0522C70.8788 37.7126 70.809 37.4131 70.6769 37.1574C70.5411 36.9018 70.3503 36.7009 70.1117 36.5657C69.8732 36.4306 69.5942 36.3612 69.2896 36.3612Z" fill="white"/>
<path d="M73.0439 40.3167V35.8134H74.6C74.945 35.8134 75.2423 35.8718 75.4808 35.9923C75.7194 36.1092 75.8992 36.2699 76.0166 36.4708C76.1341 36.6717 76.1928 36.8981 76.1928 37.1465C76.1928 37.3729 76.1377 37.5884 76.0313 37.7893C75.9249 37.9901 75.7524 38.1545 75.5138 38.2823C75.279 38.4102 74.9707 38.4722 74.5963 38.4722H73.7449V40.3203H73.0439V40.3167ZM73.7486 37.9061H74.6C74.89 37.9061 75.1102 37.8404 75.2533 37.7053C75.3964 37.5738 75.4698 37.3839 75.4698 37.1392C75.4698 36.6278 75.1762 36.3685 74.5963 36.3685H73.7449V37.9025L73.7486 37.9061Z" fill="white"/>
<path d="M77.6169 40.3167V35.8134H78.3216V39.7615H79.8667V40.3167H77.6169Z" fill="white"/>
<path d="M81.1987 40.3167V35.8061H83.676V36.3685H81.8997V37.7491H83.4815V38.3116H81.8997V39.7542H83.676V40.3167H81.1987Z" fill="white"/>
<path d="M88.6598 40.3167V36.3722H87.4377V35.8134H90.5793V36.3722H89.3645V40.3167H88.6598Z" fill="white"/>
<path d="M94.9467 40.3167V38.3262H92.7447V40.3167H92.0437V35.8134H92.7447V37.7637H94.9467V35.8134H95.6476V40.3167H94.9467Z" fill="white"/>
<path d="M99.7065 40.3167L98.6532 38.4942H98.044V40.3167H97.3394V35.8134H98.8954C99.2404 35.8134 99.5377 35.8755 99.7762 35.996C100.015 36.1165 100.195 36.2772 100.312 36.4781C100.429 36.679 100.488 36.9054 100.488 37.1538C100.488 37.446 100.404 37.7126 100.231 37.95C100.062 38.1874 99.7983 38.3481 99.4459 38.4357L99.4129 38.443L100.54 40.3203H99.6992L99.7065 40.3167ZM98.044 37.9463H98.8954C99.1817 37.9463 99.4019 37.8733 99.5487 37.7308C99.6955 37.5884 99.7689 37.3912 99.7689 37.1501C99.7689 36.9091 99.6955 36.7155 99.5524 36.5804C99.4092 36.4416 99.189 36.3722 98.8991 36.3722H98.0477V37.9463H98.044Z" fill="white"/>
<path d="M104.221 40.3642C103.802 40.3642 103.409 40.2655 103.057 40.0683C102.705 39.8747 102.422 39.5972 102.217 39.2466C102.011 38.8959 101.908 38.4942 101.908 38.0559C101.908 37.6176 102.011 37.2195 102.217 36.8689C102.422 36.5219 102.705 36.2443 103.057 36.0508C103.409 35.8536 103.802 35.7549 104.221 35.7549C104.639 35.7549 105.039 35.8536 105.391 36.0508C105.744 36.248 106.026 36.5219 106.228 36.8689C106.43 37.2159 106.536 37.6176 106.536 38.0559C106.536 38.4942 106.434 38.8959 106.228 39.2466C106.026 39.5972 105.744 39.8747 105.391 40.0683C105.039 40.2655 104.646 40.3642 104.221 40.3642ZM104.221 36.3612C103.916 36.3612 103.641 36.4306 103.398 36.5657C103.16 36.7045 102.969 36.9018 102.833 37.1574C102.697 37.4131 102.631 37.7126 102.631 38.0522C102.631 38.3919 102.701 38.6914 102.833 38.9507C102.965 39.21 103.16 39.4109 103.398 39.5497C103.637 39.6885 103.916 39.7579 104.221 39.7579C104.525 39.7579 104.804 39.6885 105.043 39.5497C105.281 39.4109 105.472 39.21 105.608 38.9507C105.744 38.6914 105.81 38.3919 105.81 38.0522C105.81 37.7126 105.74 37.4131 105.608 37.1574C105.472 36.9018 105.281 36.7009 105.043 36.5657C104.804 36.4306 104.525 36.3612 104.221 36.3612Z" fill="white"/>
<path d="M109.722 40.3642C109.399 40.3642 109.098 40.3021 108.834 40.1779C108.57 40.0537 108.357 39.8638 108.203 39.6118C108.049 39.3598 107.968 39.0457 107.968 38.6804V35.817H108.672V38.695C108.672 39.0457 108.768 39.3123 108.951 39.4912C109.139 39.6702 109.399 39.7615 109.729 39.7615C110.06 39.7615 110.328 39.6702 110.511 39.4912C110.698 39.3123 110.79 39.0457 110.79 38.695V35.817H111.495V38.6804C111.495 39.0457 111.414 39.3598 111.256 39.6118C111.098 39.8638 110.882 40.0537 110.614 40.1779C110.346 40.3021 110.045 40.3642 109.722 40.3642Z" fill="white"/>
<path d="M115.238 40.3568C114.812 40.3568 114.423 40.2582 114.071 40.061C113.722 39.8638 113.44 39.5899 113.234 39.2429C113.029 38.8959 112.926 38.4942 112.926 38.0559C112.926 37.6176 113.029 37.2195 113.234 36.8689C113.44 36.5219 113.722 36.2443 114.074 36.0508C114.427 35.8536 114.819 35.7549 115.238 35.7549C115.719 35.7549 116.152 35.8755 116.526 36.1092C116.889 36.3393 117.161 36.6644 117.33 37.0771H116.478C116.357 36.8543 116.192 36.6826 115.983 36.5657C115.77 36.4489 115.52 36.3904 115.242 36.3904C114.937 36.3904 114.658 36.4598 114.419 36.595C114.181 36.7301 113.99 36.9273 113.854 37.1793C113.719 37.4313 113.652 37.7235 113.652 38.0559C113.652 38.3883 113.722 38.6804 113.854 38.9361C113.99 39.1918 114.181 39.389 114.419 39.5241C114.658 39.6593 114.933 39.7286 115.242 39.7286C115.653 39.7286 115.994 39.6118 116.251 39.3817C116.508 39.1516 116.669 38.8375 116.724 38.443V38.4175H115.007V37.8696H117.48V38.4284C117.433 38.7754 117.308 39.0968 117.106 39.3926C116.904 39.6848 116.64 39.9222 116.317 40.0975C115.994 40.2728 115.631 40.3605 115.238 40.3605V40.3568Z" fill="white"/>
<path d="M121.822 40.3167V38.3262H119.624V40.3167H118.919V35.8134H119.624V37.7637H121.822V35.8134H122.527V40.3167H121.822Z" fill="white"/>
<path d="M126.586 40.3167V35.8134H128.307C128.615 35.8134 128.879 35.8645 129.1 35.9668C129.32 36.069 129.485 36.2078 129.595 36.3795C129.705 36.5511 129.764 36.7484 129.764 36.9602C129.764 37.2159 129.694 37.4313 129.558 37.5994C129.423 37.771 129.235 37.8988 129.004 37.9792L128.92 38.0084L129.008 38.023C129.246 38.0668 129.452 38.191 129.617 38.3992C129.786 38.6074 129.87 38.8484 129.87 39.1114C129.87 39.3378 129.812 39.5424 129.694 39.725C129.577 39.904 129.404 40.0501 129.18 40.156C128.957 40.2619 128.692 40.313 128.395 40.313H126.589L126.586 40.3167ZM127.29 39.7542H128.329C128.59 39.7542 128.795 39.6921 128.942 39.5643C129.092 39.4365 129.166 39.2612 129.166 39.0347C129.166 38.8083 129.085 38.622 128.927 38.4869C128.769 38.3517 128.56 38.286 128.3 38.286H127.29V39.7542ZM127.29 37.7235H128.241C128.49 37.7235 128.689 37.6651 128.832 37.5519C128.975 37.435 129.048 37.267 129.048 37.0515C129.048 36.836 128.975 36.6717 128.832 36.5511C128.689 36.4306 128.49 36.3722 128.241 36.3722H127.29V37.7235Z" fill="white"/>
<path d="M134.469 40.3167L134.139 39.3853H132.19L131.859 40.3167H131.125L132.748 35.8061H133.584L135.207 40.3167H134.469ZM132.388 38.8265H133.948L133.17 36.6169L132.384 38.8265H132.388Z" fill="white"/>
<path d="M136.634 40.3167V35.8134H138.106C138.586 35.8134 139.012 35.9047 139.376 36.0909C139.735 36.2736 140.018 36.5402 140.216 36.8798C140.414 37.2232 140.513 37.6249 140.513 38.0815C140.513 38.538 140.414 38.9397 140.216 39.2758C140.018 39.6118 139.739 39.8711 139.376 40.0501C139.016 40.229 138.586 40.3203 138.106 40.3203H136.634V40.3167ZM137.339 39.7542H138.106C138.645 39.7542 139.064 39.6081 139.353 39.3159C139.643 39.0238 139.787 38.611 139.787 38.0815C139.787 37.5519 139.64 37.1282 139.353 36.8287C139.064 36.5292 138.645 36.3758 138.106 36.3758H137.339V39.7579V39.7542Z" fill="white"/>
<path d="M145.317 40.3167V36.3722H144.092V35.8134H147.237V36.3722H146.018V40.3167H145.317Z" fill="white"/>
<path d="M151.78 40.3167L151.45 39.3853H149.501L149.171 40.3167H148.437L150.059 35.8061H150.896L152.518 40.3167H151.78ZM149.696 38.8265H151.255L150.477 36.6169L149.692 38.8265H149.696Z" fill="white"/>
<path d="M153.806 40.3167L155.212 38.0668L153.799 35.8134H154.599L155.637 37.4971L156.632 35.7988L157.406 35.8097L155.993 38.0668L157.399 40.3167H156.599L155.564 38.6439L154.577 40.3276L153.806 40.3167Z" fill="white"/>
<path d="M161.315 40.3167V35.8134H162.871C163.216 35.8134 163.513 35.8718 163.752 35.9923C163.99 36.1092 164.17 36.2699 164.288 36.4708C164.405 36.6717 164.464 36.8981 164.464 37.1465C164.464 37.3729 164.409 37.5884 164.302 37.7893C164.196 37.9901 164.023 38.1545 163.785 38.2823C163.55 38.4102 163.242 38.4722 162.867 38.4722H162.016V40.3203H161.311L161.315 40.3167ZM162.02 37.9061H162.871C163.161 37.9061 163.381 37.8404 163.524 37.7053C163.667 37.5738 163.741 37.3839 163.741 37.1392C163.741 36.6278 163.447 36.3685 162.867 36.3685H162.016V37.9025L162.02 37.9061Z" fill="white"/>
<path d="M168.255 40.3167L167.202 38.4942H166.592V40.3167H165.888V35.8134H167.444C167.789 35.8134 168.086 35.8755 168.325 35.996C168.563 36.1165 168.743 36.2772 168.86 36.4781C168.978 36.679 169.037 36.9054 169.037 37.1538C169.037 37.446 168.952 37.7126 168.78 37.95C168.611 38.1874 168.347 38.3481 167.994 38.4357L167.961 38.443L169.088 40.3203H168.248L168.255 40.3167ZM166.592 37.9463H167.444C167.73 37.9463 167.95 37.8733 168.097 37.7308C168.244 37.5884 168.317 37.3912 168.317 37.1501C168.317 36.9091 168.244 36.7155 168.101 36.5804C167.958 36.4416 167.737 36.3722 167.447 36.3722H166.596V37.9463H166.592Z" fill="white"/>
<path d="M172.769 40.3642C172.351 40.3642 171.958 40.2655 171.605 40.0683C171.253 39.8711 170.971 39.5972 170.765 39.2466C170.56 38.8959 170.457 38.4942 170.457 38.0559C170.457 37.6176 170.56 37.2195 170.765 36.8689C170.971 36.5219 171.253 36.2443 171.605 36.0508C171.958 35.8536 172.351 35.7549 172.769 35.7549C173.187 35.7549 173.587 35.8536 173.94 36.0508C174.292 36.248 174.575 36.5219 174.776 36.8689C174.978 37.2159 175.085 37.6176 175.085 38.0559C175.085 38.4942 174.982 38.8959 174.776 39.2466C174.575 39.5972 174.292 39.8747 173.94 40.0683C173.587 40.2655 173.195 40.3642 172.769 40.3642ZM172.769 36.3612C172.464 36.3612 172.189 36.4306 171.947 36.5657C171.708 36.7045 171.517 36.9018 171.382 37.1574C171.246 37.4131 171.18 37.7126 171.18 38.0522C171.18 38.3919 171.25 38.6914 171.382 38.9507C171.517 39.21 171.708 39.4109 171.947 39.5497C172.185 39.6885 172.461 39.7579 172.769 39.7579C173.077 39.7579 173.352 39.6885 173.591 39.5497C173.83 39.4109 174.02 39.21 174.156 38.9507C174.292 38.6914 174.358 38.3919 174.358 38.0522C174.358 37.7126 174.288 37.4131 174.156 37.1574C174.02 36.9018 173.83 36.7009 173.591 36.5657C173.352 36.4306 173.073 36.3612 172.769 36.3612Z" fill="white"/>
<path d="M176.523 40.3167V35.8134H178.245C178.553 35.8134 178.817 35.8645 179.037 35.9668C179.258 36.069 179.423 36.2078 179.533 36.3795C179.643 36.5511 179.702 36.7484 179.702 36.9602C179.702 37.2159 179.632 37.4313 179.496 37.5994C179.36 37.771 179.173 37.8988 178.942 37.9792L178.858 38.0084L178.946 38.023C179.184 38.0668 179.39 38.191 179.555 38.3992C179.72 38.6074 179.808 38.8484 179.808 39.1114C179.808 39.3378 179.749 39.5424 179.632 39.725C179.514 39.904 179.342 40.0501 179.118 40.156C178.894 40.2619 178.63 40.313 178.333 40.313H176.527L176.523 40.3167ZM177.228 39.7542H178.267C178.527 39.7542 178.733 39.6921 178.88 39.5643C179.03 39.4365 179.103 39.2612 179.103 39.0347C179.103 38.8083 179.023 38.622 178.865 38.4869C178.707 38.3517 178.498 38.286 178.237 38.286H177.228V39.7542ZM177.228 37.7235H178.179C178.428 37.7235 178.626 37.6651 178.769 37.5519C178.913 37.435 178.986 37.267 178.986 37.0515C178.986 36.836 178.913 36.6717 178.769 36.5511C178.626 36.4306 178.428 36.3722 178.179 36.3722H177.228V37.7235Z" fill="white"/>
<path d="M181.327 40.3167V35.8134H182.032V39.7615H183.577V40.3167H181.327Z" fill="white"/>
<path d="M184.909 40.3167V35.8061H187.386V36.3685H185.61V37.7491H187.188V38.3116H185.61V39.7542H187.386V40.3167H184.909Z" fill="white"/>
<path d="M193.082 40.3167V37.2232L193.035 37.2122L191.648 40.3167H191.159L189.761 37.2122L189.717 37.2232V40.3167H189.012V35.8134H189.783L191.405 39.4146L193.02 35.8134H193.783V40.3167H193.082Z" fill="white"/>
<path d="M196.962 40.3642C196.657 40.3642 196.382 40.3094 196.143 40.2071C195.901 40.1012 195.71 39.9514 195.574 39.7615C195.442 39.5752 195.373 39.3561 195.369 39.1114H196.125C196.147 39.305 196.228 39.4657 196.363 39.5899C196.507 39.7214 196.708 39.7871 196.962 39.7871C197.215 39.7871 197.435 39.7213 197.582 39.5935C197.732 39.4657 197.806 39.2977 197.806 39.0931C197.806 38.9361 197.758 38.8046 197.666 38.7023C197.575 38.6037 197.457 38.527 197.321 38.4723C197.186 38.4211 196.998 38.3627 196.763 38.3006C196.466 38.2239 196.224 38.1435 196.041 38.0632C195.861 37.9865 195.703 37.8623 195.571 37.6943C195.442 37.53 195.38 37.3035 195.38 37.0259C195.38 36.7703 195.446 36.5438 195.574 36.3503C195.703 36.1567 195.886 36.0106 196.118 35.9083C196.349 35.8061 196.624 35.7549 196.929 35.7549C197.365 35.7549 197.725 35.8645 198.004 36.08C198.276 36.2918 198.43 36.5804 198.463 36.9456H197.681C197.663 36.7849 197.582 36.6424 197.439 36.5256C197.292 36.405 197.094 36.343 196.852 36.343C196.631 36.343 196.452 36.4014 196.308 36.511C196.165 36.6242 196.096 36.7885 196.096 37.0004C196.096 37.1465 196.14 37.267 196.231 37.362C196.319 37.4533 196.43 37.5263 196.565 37.5811C196.697 37.6322 196.874 37.6907 197.108 37.7527C197.409 37.8331 197.655 37.9171 197.846 38.0011C198.033 38.0815 198.195 38.2093 198.323 38.3773C198.452 38.5453 198.518 38.7718 198.518 39.053C198.518 39.2794 198.455 39.4949 198.334 39.6958C198.213 39.8967 198.033 40.061 197.798 40.1815C197.564 40.3021 197.285 40.3642 196.965 40.3642H196.962Z" fill="white"/>
</svg>
